<?xml version="1.0" encoding="utf-8"?>
<!-- Generator: Adobe Illustrator 21.0.2, SVG Export Plug-In . SVG Version: 6.00 Build 0)  -->
<svg version="1.1" id="Calque_1" xmlns="http://www.w3.org/2000/svg" xmlns:xlink="http://www.w3.org/1999/xlink" x="0px" y="0px"
	 viewBox="0 0 19 180" style="enable-background:new 0 0 19 180;" xml:space="preserve">
<style type="text/css">
	.st0{fill:#FFFFFF;}
	.st1{fill:#E5E9EB;}
</style>
<g transform="translate(-0.14,-0.43)">
<path id="bkg_1_" class="st0" d="M0,9.5v161c0,5.2,4.3,9.5,9.5,9.5s9.5-4.3,9.5-9.5V9.5C19,4.3,14.7,0,9.5,0S0,4.3,0,9.5L0,9.5z
	 M4,10c0.1-2.9,2.6-5.2,5.5-5.2c2.9-0.1,5.4,2.2,5.5,5.2v145c-0.1,3-2.6,5.4-5.6,5.5C6.4,160.4,4,158,4,155V10z"/>
<path id="shadint" class="st1" d="M14.4,6.1c-2.4-2.7-6.6-3-9.3-0.5C4.9,5.8,4.7,5.9,4.6,6.1C3.6,7.2,3.1,8.6,3.1,10v1.2v9.6L3.2,40
	l0.2,38.3l0.2,38.3L4,155l0,0V10c0.1-2.9,2.6-5.2,5.5-5.2c2.9-0.1,5.4,2.2,5.5,5.2v145l0,0l0.4-38.3l0.1-38.3L15.8,40l0.1-19.2v-9.6
	V10C15.8,8.6,15.3,7.2,14.4,6.1z"/>
<path id="shadext_1_" class="st1" d="M18.5,53.5l-0.1,44l-0.1,44l-0.1,22v5.5v1.4c0,0.4,0,0.8-0.1,1.3c-0.1,0.8-0.3,1.6-0.7,2.4
	c-1.4,3.1-4.5,5.1-7.9,5.1c-4.3,0-8-3.2-8.6-7.5c0-0.4-0.1-0.8-0.1-1.3v-1.4v-5.5l-0.1-22l-0.1-44l-0.1-44L0,9l0,0
	c0,0.2,0,0.3,0,0.5v161c0,5.2,4.3,9.5,9.5,9.5s9.5-4.3,9.5-9.5V9.5l0,0L18.5,53.5z"/>
</g>
</svg>
