<?xml version="1.0" encoding="utf-8"?>
<!-- Generator: Adobe Illustrator 21.0.2, SVG Export Plug-In . SVG Version: 6.00 Build 0)  -->
<svg version="1.1" id="hour" xmlns="http://www.w3.org/2000/svg" xmlns:xlink="http://www.w3.org/1999/xlink" x="0px" y="0px"
	 viewBox="0 0 19 130" style="enable-background:new 0 0 19 130;" xml:space="preserve">
<style type="text/css">
	.st0{fill:#FFFFFF;}
	.st1{fill:#E5E9EB;}
</style>
<g transform="translate(-0.57,-0.78)">
<path id="bkg" class="st0" d="M9.5,0C4.3,0,0,4.3,0,9.5v111c0,5.2,4.3,9.5,9.5,9.5s9.5-4.3,9.5-9.5V9.5C19,4.3,14.7,0,9.5,0z
	 M15,102c-0.1,3-2.5,5.4-5.5,5.5c-3-0.1-5.4-2.5-5.5-5.5V10c0.1-2.9,2.6-5.2,5.5-5.2c2.9-0.1,5.4,2.2,5.5,5.2V102z"/>
<path id="shadext" class="st1" d="M19,9.5L19,9.5L18.5,41l-0.1,31.5L18.3,104l-0.1,15.7c0,0.6,0,1.2-0.1,1.9
	c-0.1,0.6-0.2,1.2-0.4,1.7c-1.2,3.5-4.4,5.8-8.1,5.8H9.4c-3.7,0-6.9-2.4-8.1-5.8c-0.2-0.6-0.3-1.1-0.4-1.7c-0.1-0.6-0.1-1.2-0.1-1.9
	l-0.1-15.8L0.6,72.5L0.5,41L0,9.5l0,0v111c0,5.2,4.3,9.5,9.5,9.5s9.5-4.3,9.5-9.5V9.5z"/>
<path id="shadint" class="st1" d="M9.5,3.9C7,3.9,4.7,5.4,3.7,7.6C3.4,8.2,3.2,8.8,3.2,9.4c0,0.7,0,1.1,0,1.7v3.1v12.5
	c0,8.4,0,16.7,0.1,25.1l0.2,25.1L4,102l0,0V10c0.1-2.9,2.6-5.2,5.5-5.2c2.9-0.1,5.4,2.2,5.5,5.2v92l0,0l0.4-25.1l0.2-25.1
	c0.1-8.4,0.1-16.7,0.1-25.1V14.2V11c0-0.5,0-1,0-1.7c-0.1-0.6-0.2-1.2-0.5-1.8C14.2,5.4,12,4,9.5,3.9L9.5,3.9z"/>
</g>
</svg>
